<?xml version="1.0" encoding="utf-8"?>
<!-- Generator: Adobe Illustrator 26.1.0, SVG Export Plug-In . SVG Version: 6.00 Build 0)  -->
<svg version="1.1" id="Calque_1" xmlns="http://www.w3.org/2000/svg" xmlns:xlink="http://www.w3.org/1999/xlink" x="0px" y="0px"
	 width="170px" height="170px" viewBox="0 0 285 285" style="enable-background:new 0 0 285 285;" xml:space="preserve">
<style type="text/css">
	.st0{fill:#FFFFFF;}
	.st1{fill:#96DCFF;}
	.st2{fill:#E1140B;}
	.st3{fill:#00AADC;}
	.st4{fill:#656765;}
</style>
<g id="Ellipse_86_00000033341968040074086400000012403881383379839666_">
	<circle class="st0" cx="142.5004" cy="142.5002" r="142"/>
	<path class="st1" d="M142.4999,1c37.7961,0,73.3298,14.7185,100.0557,41.4443s41.4443,62.2595,41.4443,100.0557
		c0,37.7959-14.7185,73.3298-41.4443,100.0554C215.8298,269.2815,180.2961,284,142.4999,284
		c-37.7959,0-73.3297-14.7185-100.0555-41.4446C15.7187,215.8296,1.0001,180.2959,1.0001,142.5
		c0-37.7961,14.7186-73.3298,41.4443-100.0557C69.1702,15.7185,104.7039,1,142.4999,1 M142.4999,0
		C63.7995,0,0.0001,63.7993,0.0001,142.5c0,78.7004,63.7994,142.5,142.4999,142.5c78.7007,0,142.5-63.7996,142.5-142.5
		C284.9999,63.7993,221.2006,0,142.4999,0L142.4999,0z"/>
</g>
<g>
	<path class="st2" d="M205.2419,99.2084c-1.4563,0.1537-2.76-0.9023-2.914-2.3583c-0.1521-1.4573,0.9039-2.7596,2.3589-2.9133
		c1.4563-0.154,2.7607,0.9019,2.9141,2.3589C207.7542,97.7521,206.6969,99.0554,205.2419,99.2084z M191.0579,77.9219
		c-0.7947-1.7827-2.8821-2.5838-4.6649-1.7895c-1.7827,0.7936-2.5849,2.8814-1.7908,4.6642
		c0.7933,1.7827,2.8821,2.5852,4.6648,1.7915C191.0504,81.7938,191.8513,79.7044,191.0579,77.9219z M169.4987,65.3294
		c-1.6328-1.814-4.4267-1.9612-6.24-0.3281c-1.814,1.6321-1.9612,4.4263-0.3271,6.2386c1.6321,1.814,4.4267,1.9613,6.2399,0.3281
		C170.9849,69.9349,171.1315,67.141,169.4987,65.3294z M144.8857,59.8397c-2.536-1.4635-5.7778-0.5952-7.2416,1.9398
		c-1.4638,2.535-0.5951,5.7781,1.9395,7.2419c2.5361,1.4635,5.7792,0.5952,7.2423-1.9398
		C148.2903,64.5439,147.4217,61.3035,144.8857,59.8397z M119.5235,62.1267c-3.3402-0.7116-6.6234,1.4217-7.3353,4.7619
		c-0.7092,3.3432,1.423,6.6274,4.764,7.3363c3.3402,0.7082,6.6247-1.4217,7.3352-4.7635
		C124.9972,66.1203,122.8643,62.8362,119.5235,62.1267z M95.834,72.1231c-3.8817,0.4055-6.6981,3.8845-6.2915,7.7665
		c0.4092,3.8834,3.8858,6.7001,7.7689,6.2929c3.8817-0.4096,6.6994-3.8868,6.2915-7.7683
		C103.1944,74.5309,99.7158,71.7118,95.834,72.1231z M76.1261,89.0253c-4.0114,1.7841-5.8145,6.4842-4.031,10.4946
		c1.7874,4.013,6.4863,5.8162,10.4976,4.03c4.0114-1.7858,5.8165-6.4853,4.031-10.4962
		C84.8362,89.0409,80.1361,87.2357,76.1261,89.0253z"/>
	<path class="st3" d="M78.7829,184.0293c1.9416-0.2049,3.6802,1.2046,3.8845,3.1454c0.2035,1.9402-1.2046,3.6795-3.1461,3.8851
		c-1.9402,0.2029-3.6802-1.2046-3.8838-3.1461C75.4318,185.9722,76.8407,184.2322,78.7829,184.0293z M92.2522,206.5535
		c0.9915,2.2287,3.6035,3.2303,5.8314,2.2395c2.228-0.9942,3.2303-3.6042,2.2381-5.8321c-0.9921-2.2286-3.6028-3.2316-5.8314-2.2394
		C92.2611,201.7143,91.2587,204.3256,92.2522,206.5535z M113.9628,219.3802c1.9592,2.1757,5.3116,2.3508,7.4866,0.393
		c2.1757-1.9612,2.3514-5.3123,0.393-7.4879c-1.9599-2.1757-5.3116-2.3521-7.4873-0.393
		C112.1774,213.8508,112.0029,217.2053,113.9628,219.3802z M138.7903,225.0413c2.9575,1.7081,6.7408,0.6949,8.4489-2.2605
		c1.7054-2.9608,0.6929-6.7428-2.2659-8.4509c-2.9568-1.7054-6.7394-0.6936-8.4469,2.2645
		C134.8176,219.5526,135.8315,223.3359,138.7903,225.0413z M164.4104,222.8534c3.8166,0.8123,7.5694-1.6253,8.3824-5.4412
		c0.8076-3.8193-1.6273-7.5721-5.4446-8.3831c-3.8172-0.811-7.5714,1.6267-8.3824,5.4419
		C158.1535,218.2917,160.5925,222.0452,164.4104,222.8534z M188.3753,212.8709c4.3663-0.4575,7.5348-4.3711,7.0781-8.7366
		c-0.4628-4.3677-4.3731-7.5348-8.7393-7.0774c-4.3683,0.4601-7.5368,4.3731-7.0787,8.7393
		C180.0934,210.1659,184.0084,213.333,188.3753,212.8709z M208.3486,195.8978c4.4579-1.9822,6.4625-7.2042,4.481-11.6622
		c-1.989-4.4551-7.2091-6.4598-11.6649-4.4755c-4.4579,1.9856-6.4625,7.2063-4.4782,11.6622
		C198.6701,195.8822,203.8941,197.8862,208.3486,195.8978z"/>
	<path class="st4" d="M73.0825,128.5435h2.8068v15.5283h-2.8068V128.5435z M104.9901,156.334
		c0.3563,0.2829,0.5348,0.7226,0.5348,1.3199c0,0.3793-0.0909,0.7247-0.2728,1.0348c-0.1825,0.3108-0.4438,0.5545-0.7859,0.7329
		c-0.209,0.1154-0.4492,0.1968-0.7207,0.2444c-0.2708,0.0454-0.6352,0.0685-1.0933,0.0685h-2.2089v-7.7559h1.837
		c0.2796,0,0.4866,0.0013,0.6223,0.0054c0.135,0.0041,0.2579,0.0129,0.3665,0.0299c0.0231,0,0.0461,0.0013,0.0699,0.0047
		c0.0231,0.0042,0.0468,0.0069,0.0692,0.0069c0.5897,0.0773,1.0532,0.2883,1.3898,0.6331c0.3373,0.3455,0.5069,0.7811,0.5069,1.3091
		c0,0.5186-0.1561,0.9256-0.4662,1.2202c-0.3095,0.2952-0.7051,0.4967-1.1862,0.6053
		C104.1879,155.8705,104.6338,156.0509,104.9901,156.334z M101.5481,155.2814h0.7906c0.0767,0,0.1568-0.0013,0.2389-0.0054
		c0.0814-0.0047,0.1636-0.0102,0.2491-0.0177c0.3413-0.0312,0.6562-0.1269,0.9426-0.285c0.2864-0.1588,0.4302-0.4486,0.4302-0.8673
		c0-0.4255-0.1452-0.7166-0.4364-0.872c-0.2905-0.1546-0.6108-0.2476-0.9596-0.2789c-0.116-0.0075-0.2328-0.0136-0.3488-0.017
		c-0.116-0.0033-0.228-0.0061-0.3373-0.0061h-0.5694V155.2814z M104.3854,157.5494c0-0.4968-0.1669-0.8341-0.5001-1.0126
		c-0.3339-0.1785-0.6969-0.287-1.0933-0.3257c-0.116-0.0068-0.2307-0.0129-0.3427-0.017c-0.1127-0.0041-0.2192-0.0061-0.3203-0.0061
		h-0.5809v2.6052h0.8483c0.0937,0,0.1859-0.0013,0.2796-0.0061c0.0923-0.0027,0.1893-0.0128,0.2905-0.0292
		c0.357-0.038,0.682-0.1432,0.9772-0.3134C104.2381,158.2741,104.3854,157.9756,104.3854,157.5494z M91.1895,141.5753h-6.3153
		v-4.3307h5.6923v-2.518h-5.6923v-3.6649h6.1375v-2.518h-8.945v15.5283h9.1227V141.5753z M67.6766,140.9542
		c-0.473,0.187-0.9182,0.3319-1.3233,0.4313c-0.397,0.0975-0.8001,0.1615-1.2303,0.1944c-0.0713,0.0119-0.1445,0.0177-0.2212,0.0177
		h-0.2776c-1.5425,0-2.836-0.5154-3.8451-1.5323c-1.0247-1.0312-1.5228-2.3005-1.5228-3.8797c0-1.5646,0.4798-2.8003,1.4658-3.7786
		c0.9854-0.9796,2.232-1.4557,3.8132-1.4557c0.281,0,0.5483,0.0143,0.794,0.0421c0.2402,0.0275,0.4784,0.0753,0.7024,0.1412
		c0.226,0.0708,0.452,0.1567,0.6759,0.2534c0.226,0.0995,0.4764,0.2287,0.7445,0.3835l0.4723,0.2731l0.2477-2.8146l-0.2273-0.1004
		c-0.5246-0.2324-1.0777-0.4048-1.6429-0.513c-0.5626-0.1079-1.1944-0.1625-1.8778-0.1625c-2.3643,0-4.3303,0.7282-5.8436,2.1645
		c-1.5174,1.439-2.287,3.3274-2.287,5.6115c0,2.5102,0.8069,4.4837,2.3983,5.8654c1.5764,1.3698,3.5947,2.0647,5.999,2.0647
		c0.4248,0,0.792-0.0149,1.1218-0.0448c0.3325-0.0312,0.6562-0.0685,1.0023-0.1194c0.1954-0.0456,0.3963-0.0937,0.5979-0.1467
		c0.2077-0.0536,0.4268-0.1188,0.6576-0.1968l0.2565-0.0855l-0.2117-2.7861L67.6766,140.9542z M106.4389,136.0295
		c0,0.3291,0.0041,0.6542,0.0115,0.9742c0.0061,0.3165,0.0109,0.629,0.0109,0.9385c0,0.1272,0.0034,0.2474,0.0115,0.36
		c0.0075,0.0947,0.0102,0.1898,0.0102,0.2847c0,0.2264,0.0041,0.4463,0.0122,0.6559c0.0047,0.1602,0.0081,0.324,0.0095,0.5002
		c-0.0326-0.0652-0.0665-0.13-0.1004-0.1949c-0.3719-0.7068-0.7526-1.4027-1.1408-2.0915l-5.1487-8.9131h-1.3857h-0.0217h-2.0311
		v15.5283h2.8075v-7.8863c0-0.9368-0.0109-1.8737-0.0332-2.8109c-0.0054-0.2175-0.0115-0.4363-0.0197-0.6561
		c0.0495,0.1017,0.1011,0.2028,0.154,0.3037c0.3875,0.7362,0.7818,1.4627,1.1761,2.1634c0.0197,0.038,0.0387,0.0709,0.0882,0.1541
		l0.0387,0.0607c0.0461,0.058,0.0882,0.1201,0.1222,0.1829c0.0427,0.0791,0.0862,0.1609,0.1391,0.2653l4.7931,8.2232h1.6056h0.0305
		h1.6457v-15.5283h-2.7851V136.0295z M77.4616,151.9786h-1.1048v7.7559h4.3839v-0.9413h-3.2791V151.9786z M48.7009,135.1629
		c-0.1452-0.0729-0.2884-0.1455-0.4262-0.2185c-0.1391-0.0733-0.2728-0.1456-0.4187-0.2263
		c-0.625-0.3122-1.1727-0.6545-1.6287-1.0176c-0.3909-0.3118-0.5816-0.7139-0.5816-1.229c0-0.5119,0.1954-0.9086,0.5972-1.213
		c0.4255-0.3227,1.0057-0.4861,1.7244-0.4861l0.3481-0.0014c0.3468,0.0306,0.7003,0.0879,1.0519,0.1714
		c0.3583,0.0838,0.7797,0.2206,1.2527,0.4072l0.4092,0.1613l0.3712-2.5996l-0.2871-0.0855
		c-0.1466-0.0441-0.2891-0.0885-0.4302-0.1334l-0.4574-0.1395c-0.3916-0.0909-0.794-0.1604-1.1944-0.2063
		c-0.3936-0.0464-0.8184-0.0698-1.2643-0.0698c-1.4726,0-2.686,0.4028-3.6069,1.1967c-0.9358,0.8065-1.4102,1.8825-1.4102,3.198
		c0,1.228,0.378,2.1706,1.1238,2.801c0.6874,0.5806,1.4529,1.0753,2.2544,1.4597c0.116,0.0659,0.2314,0.1245,0.3454,0.1728
		l0.2986,0.1278c0.6596,0.3159,1.2493,0.6701,1.7522,1.0522c0.4391,0.3347,0.6522,0.797,0.6522,1.4136
		c0,0.6671-0.2307,1.1792-0.7051,1.5656c-0.49,0.3981-1.1604,0.5999-1.9938,0.5999h-0.2334c-0.0631,0-0.1296-0.005-0.2287-0.0204
		c-0.3373-0.0268-0.6922-0.1004-1.0539-0.2182c-0.3699-0.1211-0.7906-0.2915-1.25-0.5066l-0.4391-0.206l-0.3054,2.7533
		l0.2545,0.0942c0.5409,0.201,1.1096,0.3495,1.6898,0.4412c0.5768,0.0909,1.1862,0.137,1.8106,0.137
		c1.6063,0,2.9215-0.4364,3.9096-1.2975c1.001-0.8737,1.5086-2.0504,1.5086-3.4979c0-1.2107-0.38-2.1591-1.1299-2.8187
		C50.3167,136.116,49.541,135.5908,48.7009,135.1629z M118.5334,152.9727c0.6549,0.756,0.982,1.7196,0.982,2.8903
		c0,1.2406-0.3352,2.2191-1.0057,2.9357c-0.6705,0.7174-1.5798,1.0756-2.7274,1.0756c-1.1937,0-2.1207-0.3794-2.779-1.1394
		c-0.6596-0.7593-0.9888-1.7169-0.9888-2.8719c0-1.1557,0.323-2.1146,0.9711-2.8787c0.6474-0.7635,1.5676-1.1449,2.762-1.1449
		C116.9494,151.8394,117.8778,152.2161,118.5334,152.9727z M118.3298,155.8976c0-0.9616-0.2368-1.7324-0.7098-2.3141
		c-0.473-0.5816-1.1007-0.8727-1.8839-0.8727c-0.7519,0-1.3627,0.2891-1.8316,0.8667c-0.4696,0.5774-0.7037,1.3354-0.7037,2.274
		c0,0.9379,0.2382,1.6993,0.7153,2.2849c0.4764,0.585,1.0946,0.8782,1.8547,0.8782c0.7519,0,1.3674-0.2912,1.8431-0.8721
		C118.0909,157.5609,118.3298,156.8123,118.3298,155.8976z M57.5393,156.1642h2.9778v-0.9528h-2.9778v-2.2795h3.2106v-0.9534
		h-4.3154v7.7559h4.4083v-0.9413h-3.3035V156.1642z M48.6194,153.2631c0.6515,0.7092,0.9765,1.5839,0.9765,2.6236
		c0,0.8442-0.2321,1.59-0.6969,2.2381c-0.4662,0.6481-1.0973,1.0988-1.8961,1.3552c-0.2715,0.0916-0.5721,0.1588-0.9012,0.1968
		c-0.3298,0.04-0.7275,0.0577-1.1923,0.0577h-1.7678v-7.7559h1.6049c0.2633,0,0.4689,0.0013,0.6162,0.0054
		c0.1473,0.0041,0.2864,0.0102,0.4187,0.0176c0.0387,0.0081,0.0814,0.0136,0.1283,0.017c0.0461,0.0042,0.093,0.0108,0.1398,0.0184
		C47.1115,152.1454,47.9679,152.554,48.6194,153.2631z M48.4097,155.8514c0-0.6209-0.1683-1.1801-0.5056-1.6809
		c-0.3373-0.5002-0.7811-0.847-1.3321-1.0404c-0.1941-0.0706-0.4282-0.1207-0.7031-0.1519
		c-0.2755-0.0306-0.6223-0.0462-1.041-0.0462h-0.5816v5.8613h0.57c0.4649,0,0.83-0.0176,1.0933-0.0516
		c0.2633-0.036,0.5069-0.0915,0.7322-0.1696c0.0238-0.0076,0.0468-0.0164,0.0699-0.0286c0.0231-0.0129,0.0468-0.0217,0.0706-0.0292
		c0.5035-0.2253,0.9005-0.5721,1.1917-1.041C48.2645,157.0037,48.4097,156.4636,48.4097,155.8514z M90.743,151.9786l3.3612,7.7559
		h-1.2446L92.046,157.77h-3.7684l-0.8021,1.9645h-1.1978l3.3022-7.7559H90.743z M90.7661,154.6645
		c-0.1235-0.2795-0.2416-0.5639-0.3542-0.8551c-0.1126-0.2904-0.2036-0.5828-0.2735-0.8775
		c-0.0075,0.0305-0.0156,0.0605-0.0231,0.0875c-0.0081,0.0271-0.0156,0.0556-0.0231,0.0869
		c-0.0081,0.0156-0.0163,0.0353-0.0238,0.0584c-0.0075,0.0231-0.0115,0.0461-0.0115,0.0692
		c-0.0543,0.1479-0.1201,0.3204-0.1975,0.5178c-0.078,0.1975-0.2022,0.5096-0.3719,0.9358l-0.8605,2.1404h3.0355L90.7661,154.6645z
		 M168.8819,136.0295c0,0.3291,0.0041,0.6542,0.0115,0.9752c0.0075,0.3163,0.0109,0.6284,0.0109,0.9375
		c0,0.1272,0.0047,0.2474,0.0122,0.359c0.0068,0.0951,0.0109,0.1904,0.0109,0.2857c0,0.2267,0.0027,0.4466,0.0108,0.6559
		c0.0054,0.1602,0.0088,0.324,0.0102,0.5002c-0.0326-0.0652-0.0665-0.13-0.1004-0.1949c-0.3719-0.7068-0.7526-1.404-1.1408-2.0915
		l-5.148-8.9131h-1.3966h-0.0115h-2.0311v15.5283h2.8082v-7.8863c0-0.9368-0.0122-1.8737-0.0346-2.8101
		c-0.0047-0.2166-0.0115-0.4351-0.0197-0.6556c0.0502,0.1011,0.1011,0.2019,0.154,0.302c0.3868,0.7366,0.7818,1.4631,1.1767,2.1638
		c0.021,0.0417,0.0421,0.0775,0.0821,0.1425l0.0461,0.0744c0.0475,0.0586,0.0882,0.1215,0.1208,0.1797
		c0.0428,0.0794,0.0862,0.1616,0.1398,0.2664l4.7918,8.2232h1.6178h0.0197h1.645v-15.5283h-2.7858V136.0295z M217.7204,151.9786
		h-1.4882l-2.7104,2.8142c-0.1093,0.1161-0.2151,0.2322-0.3196,0.3488c-0.1045,0.1167-0.2117,0.2369-0.3203,0.3603
		c0-0.0305,0.002-0.0597,0.0061-0.0875c0.0041-0.0258,0.0061-0.0522,0.0061-0.0753c0-0.0848,0.0014-0.1819,0.0054-0.2905
		s0.0054-0.2674,0.0054-0.4771v-2.5929h-1.1041v7.7559h1.1041v-3.0463c0-0.0774,0-0.1473,0-0.2096c0-0.0618,0-0.1236,0-0.186
		c-0.0068-0.0624-0.0109-0.1228-0.0109-0.1853c0-0.063,0-0.1317,0-0.2097c0.1466,0.1778,0.281,0.3393,0.4004,0.4826
		c0.1208,0.1438,0.2233,0.2579,0.3088,0.3433l2.8143,3.0111h1.6165l-3.9781-4.0812L217.7204,151.9786z M203.0004,128.5435h-2.8075
		v15.5283h9.0786v-2.4966h-6.2712V128.5435z M203.4266,155.7116c0,0.1704,0.002,0.3393,0.0061,0.5056
		c0.0041,0.1669,0.0068,0.3318,0.0068,0.4947c0,0.0618,0,0.1201,0.0041,0.1745c0.0041,0.0542,0.0068,0.1085,0.0068,0.1628
		c0,0.116,0.0014,0.2288,0.0054,0.3373c0.0041,0.1087,0.0061,0.2206,0.0061,0.3374c0.0075,0.1709,0.019,0.3426,0.0346,0.5178
		c0.0156,0.1743,0.0312,0.3502,0.0468,0.5279c-0.1242-0.3868-0.283-0.7648-0.4771-1.1332c-0.1941-0.3686-0.3909-0.731-0.5924-1.0872
		l-2.6405-4.5704h-1.512v7.7559h1.1048v-3.9415c0-0.4886-0.0054-0.9772-0.017-1.4657c-0.0129-0.488-0.038-0.9766-0.0753-1.4651
		c0.1228,0.4112,0.2857,0.8082,0.4873,1.1916c0.2022,0.3841,0.4079,0.7621,0.6162,1.134c0.0081,0.0164,0.0163,0.0292,0.0231,0.0407
		c0.0081,0.0115,0.017,0.0258,0.0244,0.0414c0.0312,0.0388,0.057,0.0787,0.0814,0.1215c0.0231,0.0428,0.0462,0.0875,0.0692,0.1337
		l2.4539,4.2095h1.4305v-7.7559h-1.0933V155.7116z M224.6587,144.0718l-1.5568-3.7596h-6.7387l-1.535,3.7596h-3.0504l6.6132-15.5283
		h2.6806l6.7279,15.5283H224.6587z M219.4774,132.4088c-0.1276,0.3253-0.3224,0.813-0.5816,1.4623l-1.5853,3.9455h4.7694
		l-1.5127-3.6557c-0.2362-0.53-0.4635-1.0806-0.6813-1.6416c-0.078-0.2012-0.15-0.4028-0.2172-0.6043
		C219.6097,132.0694,219.5459,132.2339,219.4774,132.4088z M225.5124,156.1642h2.9778v-0.9528h-2.9778v-2.2801h3.2099v-0.9528
		h-4.3147v7.7559h4.407v-0.9413h-3.3022V156.1642z M190.5008,152.9727c0.6549,0.756,0.9827,1.7196,0.9827,2.8903
		c0,1.2406-0.3359,2.2191-1.0057,2.9357c-0.6718,0.7174-1.5812,1.0756-2.7281,1.0756c-1.1944,0-2.1214-0.38-2.7796-1.1394
		c-0.6589-0.7593-0.9888-1.7169-0.9888-2.8719c0-1.1557,0.3237-2.1146,0.9711-2.8787c0.6474-0.7635,1.5676-1.1449,2.762-1.1449
		C188.9169,151.8394,189.8453,152.2161,190.5008,152.9727z M190.2965,155.8976c0-0.9616-0.2362-1.7324-0.7098-2.3141
		c-0.473-0.5816-1.1001-0.8727-1.8839-0.8727c-0.7512,0-1.3634,0.2891-1.8316,0.8667c-0.4689,0.5774-0.703,1.3354-0.703,2.274
		c0,0.9379,0.2375,1.6993,0.7153,2.2849c0.4764,0.585,1.0953,0.8782,1.8547,0.8782c0.7512,0,1.3661-0.2912,1.8438-0.8721
		C190.0583,157.5609,190.2965,156.8123,190.2965,155.8976z M242.25,139.743c0,0.7864-0.192,1.5119-0.5707,2.1559
		c-0.3807,0.6471-0.9324,1.1625-1.6396,1.5324c-0.4235,0.2361-0.925,0.4064-1.4814,0.5008
		c-0.5375,0.0936-1.2405,0.1397-2.1485,0.1397h-4.5719v-15.5283h3.8607c0.5375,0,0.9372,0.0044,1.1978,0.011
		c0.2755,0.0088,0.5212,0.0281,0.7411,0.0593c0.0143-0.0051,0.0787,0.0024,0.1418,0.013c0.0244,0.004,0.0509,0.0067,0.0767,0.0067
		c1.2466,0.1608,2.2089,0.6026,2.9052,1.3159c0.7078,0.7241,1.0668,1.6474,1.0668,2.744c0,1.0876-0.3359,1.9578-0.9976,2.5873
		c-0.3604,0.3426-0.7804,0.6257-1.2555,0.8472c0.5721,0.1965,1.0811,0.4704,1.5201,0.8191
		C241.8611,137.5543,242.25,138.4952,242.25,139.743z M239.0204,132.9607c0-0.683-0.2124-1.1281-0.6501-1.361
		c-0.5117-0.2728-1.0838-0.4393-1.7027-0.4951c-0.2097-0.0129-0.4296-0.0238-0.6481-0.0319
		c-0.2172-0.0071-0.4296-0.0112-0.6331-0.0112h-0.7411v3.7979h1.1645c0.1418,0,0.2891-0.0041,0.4404-0.0108
		c0.1486-0.0071,0.304-0.0183,0.4615-0.0329c0.5985-0.0535,1.1584-0.2226,1.6647-0.5021
		C238.8101,134.0737,239.0204,133.6312,239.0204,132.9607z M234.6453,141.5753h1.2744c0.1744,0,0.3468-0.0042,0.5205-0.0112
		c0.1656-0.0069,0.3373-0.0238,0.5178-0.0513c0.644-0.0701,1.2263-0.2572,1.7461-0.5575c0.4513-0.2616,0.6712-0.7233,0.6712-1.4121
		c0-0.8182-0.2525-1.3509-0.7716-1.6284c-0.5965-0.3179-1.2561-0.5143-1.9612-0.5833c-0.2077-0.0136-0.4241-0.024-0.6345-0.0322
		c-0.209-0.0061-0.4092-0.0113-0.5985-0.0113h-0.7641V141.5753z M240.0377,156.9094l1.3029,2.8251h-1.2677l-1.0003-2.325
		c-0.0468-0.1167-0.093-0.2212-0.1398-0.3141c-0.0461-0.093-0.0923-0.1786-0.1398-0.2559c-0.1398-0.2328-0.2945-0.384-0.4642-0.4539
		c-0.171-0.07-0.4275-0.1046-0.7675-0.1046h-0.6406v3.4535h-1.1041v-7.7559h1.8608c0.38,0,0.68,0.0094,0.9012,0.0284
		c0.2212,0.0197,0.4241,0.053,0.6108,0.0984c0.0387,0.017,0.0774,0.03,0.116,0.0415s0.0814,0.0243,0.1276,0.0413
		c0.3875,0.1228,0.6983,0.3523,0.9304,0.6855c0.2335,0.3338,0.3488,0.7172,0.3488,1.1515c0,0.511-0.1507,0.9209-0.4533,1.2263
		c-0.3027,0.3067-0.6976,0.5029-1.1862,0.5877c0.0312,0.0164,0.0584,0.0292,0.0814,0.0407s0.0502,0.0258,0.0814,0.0414
		c0.1242,0.0685,0.2287,0.1445,0.3142,0.2267c0.0855,0.0807,0.1669,0.1845,0.2436,0.3074c0.0394,0.0624,0.0774,0.1303,0.1167,0.2042
		C239.9495,156.7336,239.9915,156.8157,240.0377,156.9094z M239.1256,155.0086c0.2986-0.1669,0.4472-0.4641,0.4472-0.8896
		c0-0.45-0.1486-0.7527-0.4472-0.9081c-0.2986-0.1546-0.6311-0.2443-0.9949-0.2674c-0.0692-0.0075-0.1378-0.0121-0.2036-0.0121
		c-0.0651,0-0.133,0-0.2029,0h-0.8035v2.3961h0.6868c0.0855,0,0.1744-0.002,0.2681-0.0061c0.0923-0.004,0.1819-0.0088,0.266-0.017
		C238.4986,155.2732,238.827,155.1741,239.1256,155.0086z M186.1223,139.5431c0-1.2101-0.38-2.1581-1.1292-2.8187
		c-0.6942-0.6087-1.4706-1.1336-2.3107-1.5621c-0.1466-0.0726-0.2884-0.146-0.4262-0.2179
		c-0.1384-0.0733-0.2728-0.1452-0.418-0.2263c-0.6257-0.3122-1.1733-0.6542-1.6294-1.0176c-0.3902-0.3115-0.5802-0.7136-0.5802-1.23
		c0-0.5117,0.1954-0.908,0.5972-1.2124c0.4241-0.3224,1.0044-0.4858,1.7237-0.4858l0.3475-0.0014
		c0.3475,0.0306,0.701,0.0879,1.0525,0.1714c0.3556,0.0828,0.777,0.2199,1.2534,0.4072l0.4085,0.1608l0.3719-2.5961l-1.1761-0.3614
		c-0.3895-0.0909-0.792-0.1601-1.1944-0.2063c-0.3936-0.0464-0.8184-0.0698-1.2636-0.0698c-1.4726,0-2.686,0.4024-3.6076,1.1961
		c-0.9358,0.8079-1.4102,1.8841-1.4102,3.1986c0,1.2284,0.3787,2.1709,1.1245,2.801c0.6868,0.5802,1.4523,1.075,2.2537,1.4591
		c0.1154,0.0662,0.2314,0.1251,0.3454,0.173l0.2993,0.1283c0.6576,0.315,1.2473,0.6688,1.7522,1.0515
		c0.4384,0.3346,0.6515,0.797,0.6515,1.4142c0,0.6681-0.2307,1.1801-0.7051,1.5659c-0.4893,0.3978-1.1598,0.5996-1.9931,0.5996
		h-0.2334c-0.0638,0-0.1296-0.005-0.2287-0.0204c-0.338-0.0268-0.6922-0.1004-1.0532-0.2185
		c-0.3705-0.1205-0.7906-0.2908-1.25-0.5063l-0.4391-0.206l-0.3067,2.7533l0.2545,0.0942c0.5382,0.2002,1.1068,0.3481,1.6905,0.4412
		c0.5775,0.0909,1.1862,0.137,1.8099,0.137c1.6063,0,2.9215-0.4364,3.9096-1.2975
		C185.6147,142.1683,186.1223,140.9916,186.1223,139.5431z M145.8229,159.7345h1.1055v-7.7559h-1.1055V159.7345z M132.7071,137.2445
		h5.693v-2.5187h-5.693v-3.6642h6.1375v-2.518h-8.9449v15.5283h9.1227v-2.4966h-6.3153V137.2445z M113.4654,131.0616h4.7375v13.0103
		h2.8075v-13.0103h4.6479v-2.518h-12.1928V131.0616z M134.8678,159.7345h1.1048v-3.5465h2.8957v-0.9413h-2.8957v-2.3148h3.0124
		v-0.9534h-4.1172V159.7345z M176.0495,156.9671c0,0.0624,0,0.1283,0,0.1982c0,0.0699,0,0.1358,0,0.1982
		c-0.0149,0.3875-0.0889,0.7398-0.2206,1.0573c-0.1323,0.3183-0.4425,0.4771-0.9311,0.4771c-0.0685,0-0.1398-0.0034-0.209-0.0115
		c-0.0692-0.0074-0.135-0.0149-0.1975-0.0231c-0.0631-0.0149-0.1283-0.0332-0.1982-0.0529c-0.0692-0.019-0.1391-0.044-0.209-0.0753
		v0.965c0.1941,0.0312,0.3441,0.0564,0.4486,0.076c0.1045,0.0197,0.2022,0.0327,0.2966,0.0408
		c0.0305,0.0074,0.0645,0.0115,0.1038,0.0115c0.0394,0,0.0814,0,0.1276,0c0.6671,0,1.1788-0.1691,1.535-0.5063
		c0.3569-0.3374,0.5429-0.8273,0.5592-1.4707v-0.6047v-5.2681h-1.1055V156.9671z M147.3172,137.2445h5.693v-2.5187h-5.693v-3.6642
		h6.1375v-2.518h-8.9443v15.5283h9.1221v-2.4966h-6.3153V137.2445z M158.5118,156.9094l1.3029,2.8251h-1.2683l-0.9996-2.325
		c-0.0461-0.116-0.0936-0.2212-0.1398-0.3141c-0.0475-0.093-0.0937-0.1786-0.1398-0.2559c-0.1398-0.2328-0.2945-0.384-0.4649-0.4526
		c-0.171-0.0713-0.4268-0.1059-0.7682-0.1059h-0.6399v3.4535h-1.1041v-7.7559h1.8601c0.38,0,0.6807,0.0094,0.9019,0.0284
		c0.2212,0.0197,0.4241,0.053,0.6115,0.0984c0.038,0.017,0.076,0.03,0.1154,0.0415c0.0394,0.0115,0.0808,0.0243,0.1276,0.0413
		c0.3882,0.1228,0.6983,0.3523,0.9311,0.6855c0.2321,0.3338,0.3488,0.7172,0.3488,1.1515c0,0.511-0.1507,0.9209-0.4547,1.2263
		c-0.3013,0.3067-0.6969,0.5029-1.1849,0.5877c0.0312,0.0164,0.0584,0.0292,0.0801,0.0407
		c0.0244,0.0115,0.0516,0.0258,0.0828,0.0414c0.1235,0.0685,0.228,0.1445,0.3135,0.2267c0.0848,0.0807,0.1669,0.1845,0.2443,0.3074
		c0.0387,0.0624,0.0774,0.1303,0.116,0.2042C158.4222,156.7336,158.4657,156.8157,158.5118,156.9094z M157.5991,155.0086
		c0.2979-0.1669,0.4472-0.4641,0.4472-0.8896c0-0.45-0.1493-0.7527-0.4472-0.9081c-0.2993-0.1546-0.6304-0.2436-0.9949-0.2674
		c-0.0699-0.0075-0.1378-0.0115-0.2043-0.0115c-0.0652,0-0.133,0-0.2029,0h-0.8028v2.3956h0.6868
		c0.0855,0,0.1744-0.002,0.2674-0.0061c0.093-0.004,0.1819-0.0088,0.2674-0.017
		C156.9727,155.2732,157.2998,155.1741,157.5991,155.0086z"/>
</g>
</svg>
